<?xml version="1.0" standalone="no"?>
<!DOCTYPE svg PUBLIC "-//W3C//DTD SVG 20010904//EN"
 "http://www.w3.org/TR/2001/REC-SVG-20010904/DTD/svg10.dtd">
<svg version="1.0" xmlns="http://www.w3.org/2000/svg"
 width="1280.000000pt" height="1280.000000pt" viewBox="0 0 1280.000000 1280.000000"
 preserveAspectRatio="xMidYMid meet">
<metadata>
Created by potrace 1.15, written by Peter Selinger 2001-2017
</metadata>
<g transform="translate(0.000000,1280.000000) scale(0.100000,-0.100000)"
fill="#000000" stroke="none">
<path d="M1070 12793 c-311 -49 -545 -165 -733 -363 -158 -164 -263 -367 -314
-600 -17 -82 -18 -294 -18 -5430 0 -5136 1 -5348 18 -5430 106 -489 458 -841
947 -947 82 -17 294 -18 5430 -18 5136 0 5348 1 5430 18 321 69 591 249 762
507 96 145 148 270 185 440 17 82 18 294 18 5430 0 5136 -1 5348 -18 5430 -69
321 -249 591 -507 762 -140 92 -257 142 -430 184 -72 18 -289 19 -5410 20
-2934 1 -5346 0 -5360 -3z m10663 -668 c189 -49 343 -203 392 -392 13 -50 15
-693 15 -5333 0 -4640 -2 -5283 -15 -5333 -49 -189 -203 -343 -392 -392 -50
-13 -693 -15 -5333 -15 -4640 0 -5283 2 -5333 15 -189 49 -343 203 -392 392
-13 50 -15 693 -15 5333 0 4640 2 5283 15 5333 48 186 202 342 388 392 44 12
826 14 5332 14 4646 1 5288 -1 5338 -14z"/>
<path d="M10259 10510 c-74 -12 -189 -52 -258 -91 -31 -18 -656 -416 -1390
-887 l-1334 -855 -551 93 c-303 50 -1354 226 -2336 390 l-1785 299 -30 -28
c-16 -15 -202 -184 -413 -375 -210 -192 -382 -351 -382 -355 0 -3 134 -48 298
-99 163 -51 446 -139 627 -196 182 -57 482 -152 668 -210 185 -58 489 -154
675 -212 185 -58 486 -153 667 -210 182 -57 428 -134 547 -171 120 -38 218
-70 218 -73 0 -3 -458 -294 -1017 -648 l-1016 -643 -471 117 -472 116 -309
-203 c-171 -111 -343 -224 -383 -250 l-74 -47 848 -652 c679 -523 850 -651
863 -643 2935 1851 7252 4577 7296 4606 82 56 182 160 228 238 62 105 82 185
82 319 -1 102 -4 125 -31 201 -77 217 -268 396 -484 454 -71 19 -209 26 -281
15z"/>
<path d="M1370 2155 l0 -395 2965 0 2965 0 0 395 0 395 -2965 0 -2965 0 0
-395z"/>
</g>
</svg>
